<?xml version="1.0" encoding="UTF-8"?>
<svg width="13px" height="13px" viewBox="0 0 13 13" version="1.1" xmlns="http://www.w3.org/2000/svg" xmlns:xlink="http://www.w3.org/1999/xlink">
    <title>FillStar</title>
    <g id="Page-1" stroke="none" stroke-width="1" fill="none" fill-rule="evenodd">
        <g id="상세-페이지" transform="translate(-1277.000000, -197.000000)" fill="#FF7777" fill-rule="nonzero">
            <g id="Group-13" transform="translate(534.000000, 177.000000)">
                <g id="Group-10" transform="translate(743.000000, 18.000000)">
                    <g id="Group-8" transform="translate(0.000000, 2.000000)">
                        <path d="M10.15625,12.4121094 C10.2773438,12.3183594 10.3515625,12.1953125 10.3789062,12.0429688 C10.40625,11.890625 10.3847656,11.7089844 10.3144531,11.4980469 L9.16601562,8.08203125 L12.0957031,5.984375 C12.2753906,5.8515625 12.4013672,5.71582031 12.4736328,5.57714844 C12.5458984,5.43847656 12.5566406,5.296875 12.5058594,5.15234375 C12.4589844,5.0078125 12.3652344,4.89941406 12.2246094,4.82714844 C12.0839844,4.75488281 11.9042969,4.72070312 11.6855469,4.72460938 L8.08789062,4.74804688 L6.99804688,1.31445312 C6.92773438,1.09960938 6.83789062,0.9375 6.72851562,0.828125 C6.61914062,0.71875 6.48632812,0.6640625 6.33007812,0.6640625 C6.17773438,0.6640625 6.046875,0.71875 5.9375,0.828125 C5.828125,0.9375 5.73828125,1.09960938 5.66796875,1.31445312 L4.578125,4.74804688 L0.986328125,4.72460938 C0.763671875,4.72070312 0.583007812,4.75488281 0.444335938,4.82714844 C0.305664062,4.89941406 0.2109375,5.00585938 0.16015625,5.14648438 C0.109375,5.29492188 0.12109375,5.43847656 0.1953125,5.57714844 C0.26953125,5.71582031 0.396484375,5.8515625 0.576171875,5.984375 L3.50585938,8.08203125 L2.35742188,11.4980469 C2.28710938,11.7089844 2.26464844,11.890625 2.29003906,12.0429688 C2.31542969,12.1953125 2.38867188,12.3183594 2.50976562,12.4121094 C2.63476562,12.5058594 2.77441406,12.5390625 2.92871094,12.5117188 C3.08300781,12.484375 3.25,12.4042969 3.4296875,12.2714844 L6.33007812,10.1386719 L9.23632812,12.2714844 C9.41992188,12.4042969 9.58886719,12.484375 9.74316406,12.5117188 C9.89746094,12.5390625 10.0351562,12.5058594 10.15625,12.4121094 Z" id="FillStar"></path>
                    </g>
                </g>
            </g>
        </g>
    </g>
</svg>