<?xml version="1.0" encoding="UTF-8"?>
<svg width="13px" height="13px" viewBox="0 0 13 13" version="1.1" xmlns="http://www.w3.org/2000/svg" xmlns:xlink="http://www.w3.org/1999/xlink">
    <title>HalfStar</title>
    <g id="Page-1" stroke="none" stroke-width="1" fill="none" fill-rule="evenodd">
        <g id="상세-페이지" transform="translate(-1336.000000, -197.000000)" fill="#FF7777" fill-rule="nonzero">
            <g id="Group-13" transform="translate(534.000000, 177.000000)">
                <g id="Group-10" transform="translate(743.000000, 18.000000)">
                    <g id="Group-8" transform="translate(0.000000, 2.000000)">
                        <path d="M69.15625,12.4121094 C69.2773438,12.3183594 69.3515625,12.1953125 69.3789062,12.0429688 C69.40625,11.890625 69.3847656,11.7089844 69.3144531,11.4980469 L68.1660156,8.08203125 L71.0957031,5.984375 C71.2753906,5.8515625 71.4013672,5.71582031 71.4736328,5.57714844 C71.5458984,5.43847656 71.5566406,5.296875 71.5058594,5.15234375 C71.4589844,5.0078125 71.3652344,4.89941406 71.2246094,4.82714844 C71.0839844,4.75488281 70.9042969,4.72070312 70.6855469,4.72460938 L67.0878906,4.74804688 L65.9980469,1.31445312 C65.9277344,1.09960938 65.8378906,0.9375 65.7285156,0.828125 C65.6191406,0.71875 65.4863281,0.6640625 65.3300781,0.6640625 C65.1777344,0.6640625 65.046875,0.71875 64.9375,0.828125 C64.828125,0.9375 64.7382812,1.09960938 64.6679688,1.31445312 L63.578125,4.74804688 L59.9863281,4.72460938 C59.7636719,4.72070312 59.5830078,4.75488281 59.4443359,4.82714844 C59.3056641,4.89941406 59.2109375,5.00585938 59.1601562,5.14648438 C59.109375,5.29492188 59.1210938,5.43847656 59.1953125,5.57714844 C59.2695312,5.71582031 59.3964844,5.8515625 59.5761719,5.984375 L62.5058594,8.08203125 L61.3574219,11.4980469 C61.2871094,11.7089844 61.2646484,11.890625 61.2900391,12.0429688 C61.3154297,12.1953125 61.3886719,12.3183594 61.5097656,12.4121094 C61.6347656,12.5058594 61.7744141,12.5390625 61.9287109,12.5117188 C62.0830078,12.484375 62.25,12.4042969 62.4296875,12.2714844 L65.3300781,10.1386719 L68.2363281,12.2714844 C68.4199219,12.4042969 68.5888672,12.484375 68.7431641,12.5117188 C68.8974609,12.5390625 69.0351562,12.5058594 69.15625,12.4121094 Z M68.2070312,11.1640625 L65.640625,9.1953125 C65.53125,9.11328125 65.4277344,9.07421875 65.3300781,9.078125 L65.3300781,2.1875 C65.3457031,2.1875 65.3574219,2.20117188 65.3652344,2.22851562 L66.2851562,5.33398438 C66.3242188,5.46289062 66.3828125,5.55273438 66.4609375,5.60351562 C66.5390625,5.65429688 66.6425781,5.67773438 66.7714844,5.67382812 L70.0058594,5.60351562 C70.0371094,5.60351562 70.0546875,5.609375 70.0585938,5.62109375 C70.0625,5.6328125 70.0527344,5.64648438 70.0292969,5.66210938 L67.3632812,7.50195312 C67.2851562,7.55273438 67.2285156,7.60546875 67.1933594,7.66015625 C67.1582031,7.71484375 67.140625,7.77636719 67.140625,7.84472656 C67.140625,7.91308594 67.15625,7.98828125 67.1875,8.0703125 L68.2539062,11.1289062 C68.2617188,11.1484375 68.2636719,11.1640625 68.2597656,11.1757812 C68.2519531,11.1835938 68.234375,11.1796875 68.2070312,11.1640625 Z" id="HalfStar"></path>
                    </g>
                </g>
            </g>
        </g>
    </g>
</svg>